<svg xmlns="http://www.w3.org/2000/svg" viewBox="0 0 32 32">
  <rect width="32" height="32" rx="6" fill="#1a1a2e"/>
  <g transform="translate(16,16)">
    <ellipse cx="0" cy="2" rx="4" ry="3.5" fill="#e2e8f0"/>
    <path d="M-1.5 0.5 Q-3-3-1.5-6 Q0-4 0-3 Q0-4 1.5-6 Q3-3 1.5 0.5Z" fill="#e2e8f0"/>
    <path d="M-4 2 Q-7 0-9-3 Q-6-1-4 0.5Z" fill="#e2e8f0"/>
    <path d="M4 2 Q7 0 9-3 Q6-1 4 0.5Z" fill="#e2e8f0"/>
    <path d="M-1 5 Q-1.5 8-0.5 10 Q0 8.5 0.5 10 Q1.5 8 1 5Z" fill="#e2e8f0"/>
    <circle cx="0.8" cy="1" r="0.7" fill="#1a1a2e"/>
  </g>
</svg>
